<svg version="1.1" id="Layer_1" xmlns="http://www.w3.org/2000/svg" xmlns:xlink="http://www.w3.org/1999/xlink" x="0px" y="0px"
	 width="100%" viewBox="0 0 544 560" enable-background="new 0 0 544 560" xml:space="preserve">
<path fill="#000000" opacity="1.000000" stroke="none" 
	d="
M417.903046,347.840576 
	C396.406342,383.347595 375.574524,418.844269 353.592041,453.613464 
	C339.374634,476.100800 318.242889,488.355225 291.200989,489.330139 
	C258.657196,490.503418 234.619812,476.328552 217.896103,448.793457 
	C173.722824,376.063477 129.342285,303.458893 85.351456,230.618851 
	C65.823624,198.284653 70.368179,160.731232 96.730865,133.700531 
	C109.227203,120.887543 124.772392,113.567299 142.652267,111.678436 
	C161.090622,109.730583 179.602051,110.919861 198.075134,110.879509 
	C272.398987,110.717133 346.723480,110.773804 421.047668,110.825035 
	C455.623596,110.848869 485.314514,131.010376 496.624146,162.910629 
	C505.023621,186.602325 501.992035,209.780106 489.229340,231.116226 
	C465.885712,270.141083 441.835480,308.743256 417.903046,347.840576 
M288.499969,126.295761 
	C244.335495,126.301682 200.170959,126.338280 156.006577,126.282799 
	C148.786392,126.273727 141.783951,127.198746 134.812347,129.127808 
	C95.437042,140.022980 76.720444,185.771576 97.552017,220.940308 
	C109.693306,241.437714 122.266548,261.679413 134.682983,282.013245 
	C135.571259,283.467987 136.195770,285.285065 138.359253,286.115417 
	C138.815475,284.002075 139.289566,282.253387 139.562866,280.473816 
	C145.000183,245.069092 174.600113,219.681381 210.452515,219.688324 
	C247.950851,219.695572 285.449219,219.671600 322.947510,219.721146 
	C329.347748,219.729599 335.563324,218.751328 341.594238,216.729538 
	C348.993744,214.248962 354.551178,209.747925 358.177307,202.546158 
	C373.072784,172.962692 357.273071,137.690399 325.253082,128.933029 
	C313.435913,125.701073 301.466125,126.477348 288.499969,126.295761 
M290.401733,473.908081 
	C311.354218,472.904144 327.817780,463.283478 339.441895,446.326904 
	C350.068359,430.825684 359.430115,414.454865 369.275543,398.422028 
	C373.762207,391.115692 378.071686,383.700531 382.599884,376.102570 
	C380.189331,375.538208 378.737213,376.504883 377.217041,377.016541 
	C369.594208,379.582153 361.741547,380.937408 353.732605,381.164734 
	C322.723999,382.044891 299.718719,368.104828 283.438568,342.416321 
	C272.210663,324.699738 261.488617,306.662750 250.521698,288.780487 
	C241.817596,274.587891 233.049713,260.434235 224.378754,246.221451 
	C219.478333,238.189087 213.295425,233.654129 203.060471,235.347687 
	C169.219528,240.947281 147.000534,274.205750 155.143600,307.623291 
	C157.694839,318.093079 162.343735,327.554932 167.957703,336.723114 
	C189.348801,371.656921 210.325531,406.845245 231.818832,441.715454 
	C244.927704,462.982910 263.902161,474.507324 290.401733,473.908081 
M389.499786,126.297653 
	C378.110718,126.297653 366.721619,126.297653 354.968933,126.297653 
	C355.473053,127.348465 355.538574,127.718903 355.759277,127.912025 
	C382.984009,151.733490 386.030884,187.932770 367.324982,218.568390 
	C350.571228,246.006851 333.697266,273.371918 316.938599,300.807404 
	C311.817322,309.191406 306.739227,317.610291 301.947693,326.184357 
	C298.553589,332.257751 298.857666,338.255432 303.696777,343.708862 
	C307.691254,348.210480 311.809082,352.574097 316.956604,355.774139 
	C347.670227,374.867706 388.501038,365.446869 407.596924,334.582306 
	C430.032562,298.319855 452.196228,261.889008 474.446075,225.511749 
	C482.941620,211.621964 487.007477,196.891953 484.981415,180.304810 
	C481.811188,154.350250 458.049316,130.264038 431.930328,127.238037 
	C418.123260,125.638435 404.306000,126.707901 389.499786,126.297653 
M242.884567,246.677460 
	C257.603607,270.770844 272.322662,294.864227 287.399292,319.542969 
	C304.706177,291.174805 321.535767,263.588989 339.011841,234.943542 
	C303.840027,233.606644 270.141022,235.412186 235.268753,234.645782 
	C238.250443,239.359711 240.371460,242.712982 242.884567,246.677460 
z"/>
</svg>